<?xml version="1.0" encoding="UTF-8"?>
<!DOCTYPE svg PUBLIC "-//W3C//DTD SVG 1.1//EN" "http://www.w3.org/Graphics/SVG/1.1/DTD/svg11.dtd">
<svg xmlns="http://www.w3.org/2000/svg" version="1.1" width="234px" height="233px" style="shape-rendering:geometricPrecision; text-rendering:geometricPrecision; image-rendering:optimizeQuality; fill-rule:evenodd; clip-rule:evenodd" xmlns:xlink="http://www.w3.org/1999/xlink">
<g><path style="opacity:1" fill="#3e76d6" d="M 102.5,2.5 C 152.035,-0.485131 189.868,18.8482 216,60.5C 230.549,89.2882 233.549,119.288 225,150.5C 205.753,199.894 169.587,226.561 116.5,230.5C 58.1353,225.955 20.9686,195.622 5,139.5C -3.06685,85.8126 15.7665,44.6459 61.5,16C 74.5873,9.3593 88.2539,4.8593 102.5,2.5 Z"/></g>
<g><path style="opacity:1" fill="#f7fbfd" d="M 101.5,111.5 C 108.057,113.975 114.224,117.308 120,121.5C 120.667,124.167 120.667,126.833 120,129.5C 119.275,130.059 118.442,130.392 117.5,130.5C 104.755,126.631 92.0884,122.464 79.5,118C 75.3601,115.179 72.0268,111.679 69.5,107.5C 67.7053,102.63 66.872,97.6303 67,92.5C 77.3924,100.781 88.8924,107.114 101.5,111.5 Z"/></g>
<g><path style="opacity:1" fill="#edf6fd" d="M 177.5,106.5 C 181.252,108.749 182.419,112.082 181,116.5C 180.586,116.957 180.086,117.291 179.5,117.5C 171.873,111.796 165.04,112.796 159,120.5C 155.91,124.682 153.91,129.349 153,134.5C 151.165,130.928 151.165,127.262 153,123.5C 154.994,118.481 158.161,114.481 162.5,111.5C 165.308,110.897 167.974,109.897 170.5,108.5C 169.833,108.167 169.167,107.833 168.5,107.5C 160.202,106.56 151.869,106.226 143.5,106.5C 143.33,105.178 143.663,104.011 144.5,103C 155.735,102.19 166.735,103.357 177.5,106.5 Z"/></g>
<g><path style="opacity:1" fill="#547ece" d="M 128.5,99.5 C 130.679,99.84 132.512,100.84 134,102.5C 135.299,102.034 136.799,102.034 138.5,102.5C 138.051,104.977 138.717,106.977 140.5,108.5C 142.441,106.684 143.108,104.684 142.5,102.5C 146.027,101.122 149.694,100.455 153.5,100.5C 159.5,101 165.5,101.5 171.5,102C 174.106,102.792 176.106,104.292 177.5,106.5C 166.735,103.357 155.735,102.19 144.5,103C 143.663,104.011 143.33,105.178 143.5,106.5C 151.869,106.226 160.202,106.56 168.5,107.5C 169.167,107.833 169.833,108.167 170.5,108.5C 167.974,109.897 165.308,110.897 162.5,111.5C 162.881,110.069 163.881,109.236 165.5,109C 158.167,108.333 150.833,108.333 143.5,109C 142.594,110.699 142.261,112.533 142.5,114.5C 138.511,108.845 133.844,103.845 128.5,99.5 Z"/></g>
<g><path style="opacity:1" fill="#f8fbfd" d="M 128.5,99.5 C 133.844,103.845 138.511,108.845 142.5,114.5C 147.407,124.755 147.573,135.089 143,145.5C 131.785,156.515 120.285,167.182 108.5,177.5C 106.903,166.073 110.903,157.073 120.5,150.5C 136.018,140.375 137.684,128.208 125.5,114C 121.284,110.944 116.951,108.111 112.5,105.5C 99.4952,97.3315 86.4952,89.1648 73.5,81C 65.7157,73.2732 61.3824,64.1066 60.5,53.5C 82.8784,69.3486 105.545,84.6819 128.5,99.5 Z"/></g>
<g><path style="opacity:1" fill="#f5f9fc" d="M 107.5,142.5 C 102.316,141.901 97.3155,140.568 92.5,138.5C 88.752,135.34 86.9187,131.34 87,126.5C 89.7612,127.796 92.5945,128.963 95.5,130C 104.175,131.336 112.841,132.669 121.5,134C 126.571,135.236 128.571,138.402 127.5,143.5C 120.809,143.546 114.143,143.212 107.5,142.5 Z"/></g>
<g><path style="opacity:1" fill="#4f7cd0" d="M 112.5,105.5 C 116.951,108.111 121.284,110.944 125.5,114C 137.684,128.208 136.018,140.375 120.5,150.5C 120.762,149.022 120.429,147.689 119.5,146.5C 116.026,144.938 112.36,144.105 108.5,144C 107.944,143.617 107.611,143.117 107.5,142.5C 114.143,143.212 120.809,143.546 127.5,143.5C 128.571,138.402 126.571,135.236 121.5,134C 112.841,132.669 104.175,131.336 95.5,130C 92.5945,128.963 89.7612,127.796 87,126.5C 86.9187,131.34 88.752,135.34 92.5,138.5C 90.2192,136.572 87.5525,135.572 84.5,135.5C 84.6657,131.154 84.499,126.821 84,122.5C 82.2658,120.549 80.0991,119.549 77.5,119.5C 77.6602,121.199 77.4935,122.866 77,124.5C 73.3535,122.021 70.1868,119.021 67.5,115.5C 68.325,114.614 69.325,114.281 70.5,114.5C 70.552,112.097 70.2186,109.764 69.5,107.5C 72.0268,111.679 75.3601,115.179 79.5,118C 92.0884,122.464 104.755,126.631 117.5,130.5C 118.442,130.392 119.275,130.059 120,129.5C 120.667,126.833 120.667,124.167 120,121.5C 114.224,117.308 108.057,113.975 101.5,111.5C 107.078,111.545 112.078,113.211 116.5,116.5C 117.768,114.696 118.435,112.696 118.5,110.5C 117.167,110.5 115.833,110.5 114.5,110.5C 114.169,108.678 113.502,107.011 112.5,105.5 Z"/></g>
</svg>
