<svg xmlns="http://www.w3.org/2000/svg" viewBox="0 0 512 512">
  <circle cx="256" cy="256" r="256" fill="#2563EB"/>
  <path d="M353.12 150.47c-12.41-7.53-26.23-11.72-40.71-12.23a65.89 65.89 0 00-45.76 15.38c3.61-1.87 7.8-2.94 12.41-2.94 9.75 0 18.71 4.01 25.15 10.45 6.44 6.44 10.44 15.4 10.44 25.15 0 1.27-.08 2.51-.23 3.73-5.3-12.17-14.69-21.93-26.57-27.67-11.88-5.74-25.3-6.9-37.99-3.29-12.7 3.61-23.47 11.41-30.04 21.97-6.57 10.55-9.17 23.03-7.26 35.25 23.66-8.18 41.74-17.47 54.76-27.87 13.02-10.4 20.97-22.12 24.79-35.18 3.82-13.06 3.59-27.56-0.69-43.44 20.71 6.64 37.44 21.02 47.16 39.81 9.73 18.79 11.12 40.59 3.93 60.51-7.19 19.92-21.55 36.23-40.49 45.82-18.95 9.58-40.77 10.78-61.15 3.38-20.38-7.4-36.87-22.01-46.15-41.14l-.12-.26c26.29 1.19 46.95-5.83 61.94-20.97 14.98-15.13 24.2-38.38 27.62-69.69 17.12 13.79 30.28 31.93 38.27 52.6 7.99 20.68 9.77 43.09 5.16 64.78-4.6 21.7-15.52 41.67-31.52 57.55-16 15.87-36.04 26.65-57.77 31.06-83.3-29.09-109.61-120.41-58.53-183.63C230.89 125.8 296.29 125.8 353.12 150.47z" fill="white"/>
</svg> 